<?xml version="1.0" standalone="no"?><!DOCTYPE svg PUBLIC "-//W3C//DTD SVG 1.1//EN" "http://www.w3.org/Graphics/SVG/1.1/DTD/svg11.dtd"><svg t="1656408169626" class="icon" viewBox="0 0 1024 1024" version="1.1" xmlns="http://www.w3.org/2000/svg" p-id="2378" xmlns:xlink="http://www.w3.org/1999/xlink" width="16" height="16"><defs><style type="text/css">@font-face { font-family: feedback-iconfont; src: url("//at.alicdn.com/t/font_1031158_u69w8yhxdu.woff2?t=1630033759944") format("woff2"), url("//at.alicdn.com/t/font_1031158_u69w8yhxdu.woff?t=1630033759944") format("woff"), url("//at.alicdn.com/t/font_1031158_u69w8yhxdu.ttf?t=1630033759944") format("truetype"); }
</style></defs><path d="M284.16 48.032a25.6 25.6 0 0 0-25.408 22.4l-0.192 3.2v65.088L81.696 292.608a46.08 46.08 0 0 0 9.984 89.632l4.416 0.224h34.528v157.088a25.28 25.28 0 0 0 0 3.392v145.088a25.28 25.28 0 0 0 0 3.392v145.152a25.28 25.28 0 0 0-0.032 3.104h-25.6A40.96 40.96 0 0 0 64 880.64v76.8l83.584 0.032a25.568 25.568 0 0 0 17.12 0l770.464-0.032 3.2-0.192a25.6 25.6 0 0 0 0-50.816l-3.2-0.192-55.36-0.032a757.12 757.12 0 0 1 57.248-144.16 42.752 42.752 0 0 0-14.112-55.52l-3.776-2.24-183.68-76.672-3.136-1.408a33.856 33.856 0 0 0-22.976 0.64l-3.84 1.76-179.552 74.72-4.128 2.4c-19.744 12.736-26.112 36.736-15.808 56.32a757.312 757.312 0 0 1 57.28 144.16H417.28V880.64a40.96 40.96 0 0 0-40.96-40.96h-66.56V382.4h198.848a46.08 46.08 0 0 0 4.448-91.936l-4.48-0.192h-20.544l-178.24-151.68-0.032-64.96a25.6 25.6 0 0 0-25.6-25.6zM747.264 687.84l140.224 58.592-1.76 3.392a812.928 812.928 0 0 0-54.144 138.784l-4.864 17.6h-79.456V687.84z m-51.2-0.032v218.4h-79.648l-0.48-1.76a822.72 822.72 0 0 0-52-141.248l-6.56-13.344-1.824-3.52 140.48-58.528zM258.56 758.752V812.8H212l46.592-54.016z m-30.304-43.264L181.76 769.44v-53.92h46.496z m30.304-105.216v54.016H212l46.592-54.016zM817.408 563.2a11.296 11.296 0 0 0-11.2 8.672l-0.224 2.208v26.016c0 3.328 1.6 6.4 4.224 8.448l2.176 1.28 94.88 44.416c6.848 3.2 14.72-0.768 16.224-7.424l0.256-2.336v-70.4a11.008 11.008 0 0 0-9.12-10.656l-2.304-0.224h-94.912z m-291.84 0a11.296 11.296 0 0 0-11.2 8.672l-0.224 2.208v70.4c0 7.232 7.2 12.224 14.144 10.56l2.336-0.8 94.88-44.384a10.976 10.976 0 0 0 6.08-7.328l0.32-2.432V574.08a11.008 11.008 0 0 0-9.12-10.656l-2.304-0.224h-94.912z m-297.28 3.84l-46.496 53.92v-53.92h46.496z m445.76-8.96c-6.304 0-11.424 5.76-11.424 12.8 0 6.176 3.904 11.36 9.12 12.544l2.304 0.256h94.912c6.304 0 11.424-5.76 11.424-12.8 0-6.176-3.936-11.36-9.12-12.544l-2.304-0.256h-94.912z m0-92.16a11.52 11.52 0 0 0-11.2 9.376l-0.224 2.336v48.256c0 5.664 3.904 10.368 9.12 11.488l2.304 0.224h94.912a11.52 11.52 0 0 0 11.2-9.376l0.224-2.336v-48.256a11.648 11.648 0 0 0-9.12-11.488l-2.304-0.224h-94.912z m143.36 0a11.52 11.52 0 0 0-11.2 9.376l-0.224 2.336v48.256c0 5.664 3.904 10.368 9.12 11.488l2.304 0.224h94.912a11.52 11.52 0 0 0 11.2-9.376l0.224-2.336v-48.256a11.648 11.648 0 0 0-9.12-11.488l-2.304-0.224h-94.912z m-291.84 0a11.52 11.52 0 0 0-11.2 9.376l-0.224 2.336v48.256c0 5.664 3.904 10.368 9.12 11.488l2.304 0.224h94.912a11.52 11.52 0 0 0 11.2-9.376l0.224-2.336v-48.256a11.648 11.648 0 0 0-9.12-11.488l-2.304-0.224h-94.912z m-266.976-4.128v54.016H212l46.592-54.016z m-76.8-79.36h76.8v0.992l-76.8 89.088v-90.08zM710.816 332.8a10.976 10.976 0 0 0-9.664 5.92l-0.928 2.304-16.48 58.304-91.904 0.032c-5.28 0-9.696 2.944-10.848 6.88l-0.32 2.048v17.984c0 4.224 3.68 7.776 8.64 8.704l2.528 0.224h269.568c5.28 0 9.696-2.944 10.848-6.88l0.288-2.048v-17.984c0-4.224-3.68-7.776-8.576-8.704l-2.56-0.224-107.264-0.032-16.48-58.304a11.2 11.2 0 0 0-8.224-7.968l-2.368-0.256h-16.256zM258.592 206.592v83.68h-96.224l96.192-83.68z m51.2-0.768l99.2 84.48h-99.2v-84.48z" p-id="2379"></path></svg>