<?xml version="1.0" standalone="no"?><!DOCTYPE svg PUBLIC "-//W3C//DTD SVG 1.1//EN" "http://www.w3.org/Graphics/SVG/1.1/DTD/svg11.dtd"><svg t="1656408189520" class="icon" viewBox="0 0 1025 1024" version="1.1" xmlns="http://www.w3.org/2000/svg" p-id="2944" xmlns:xlink="http://www.w3.org/1999/xlink" width="16.015625" height="16"><defs><style type="text/css">@font-face { font-family: feedback-iconfont; src: url("//at.alicdn.com/t/font_1031158_u69w8yhxdu.woff2?t=1630033759944") format("woff2"), url("//at.alicdn.com/t/font_1031158_u69w8yhxdu.woff?t=1630033759944") format("woff"), url("//at.alicdn.com/t/font_1031158_u69w8yhxdu.ttf?t=1630033759944") format("truetype"); }
</style></defs><path d="M993.46 128.21H703.99V95.19c0-17.67-14.33-32-32-32H352.04c-17.67 0-32 14.33-32 32v33.02H32c-17.67 0-32 14.33-32 32v703.95c0 17.67 14.33 32 32 32h449.66c17.67 0 32-14.33 32-32s-14.33-32-32-32H64V192.21h256.04v32.3c0 17.67 14.33 32 32 32H672c17.67 0 32-14.33 32-32v-32.3h257.46v316.42c0 17.67 14.33 32 32 32s32-14.33 32-32V160.21c0-17.67-14.33-32-32-32z m-353.47 64.31H384.04v-65.33H640v65.33z" p-id="2945"></path><path d="M781.24 537.2c-64.98 0-126.08 25.31-172.03 71.26s-71.26 107.05-71.26 172.03 25.31 126.08 71.26 172.03 107.05 71.26 172.03 71.26 126.08-25.31 172.03-71.26 71.26-107.05 71.26-172.03c0-64.99-25.31-126.08-71.26-172.03S846.23 537.2 781.24 537.2z m0 422.58c-98.86 0-179.29-80.43-179.29-179.29S682.38 601.2 781.24 601.2s179.29 80.43 179.29 179.29-80.43 179.29-179.29 179.29z" p-id="2946"></path><path d="M852.56 704.91l-99.71 99.71-45.5-45.5c-12.5-12.5-32.76-12.5-45.25 0-12.5 12.5-12.5 32.76 0 45.25l66.98 66.98c2.8 2.8 5.98 4.96 9.39 6.51 4.62 2.41 9.7 3.62 14.79 3.62 8.19 0 16.38-3.12 22.63-9.37l121.94-121.94c12.5-12.5 12.5-32.76 0-45.25-12.51-12.51-32.77-12.51-45.27-0.01z m11.66-257.5c17.67 0 32-14.33 32-32s-14.33-32-32-32H672.86c-17.67 0-32 14.33-32 32s14.33 32 32 32h191.36z m-367.7 114.36l-6.95-84.62c0-27.24-15.65-33.61-15.65-33.61-9.85-5.22-22.6 3.48-22.6 3.48-17.39 2.32-17.97-13.33-17.97-13.33-0.58-10.43 10.43-13.33 10.43-13.33 10.43 0 15.65-7.53 15.65-7.53 8.7-7.54 2.32-14.49 2.32-14.49-5.8-11.59-18.55-16.81-18.55-16.81-17.97-1.16-18.55 11.01-18.55 11.01-0.58 4.06-2.32 9.85-2.32 9.85-6.95 9.27-12.75 6.95-12.75 6.95-5.79 1.74-8.69-6.37-8.69-6.37 0.58-11.59-1.16-19.71-1.16-19.71-4.64-26.08-31.88-26.66-31.88-26.66l-82.88 1.74c-6.38 1.16-5.22 4.64-5.22 4.64 3.48 5.79 6.96 4.64 6.96 4.64h62.02c4.64 2.32 0 5.21 0 5.21l-36.51 1.16c-7.54 1.16 0.58 5.79 0.58 5.79l33.62 1.74c8.11 1.16 6.95 1.74 6.95 1.74 5.22 2.9 0.58 3.48 0.58 3.48l-17.97 0.58c-9.86 0.58-7.54 4.06-7.54 4.06l35.93 1.16c5.8 0 5.8 1.74 5.8 1.74 1.16 4.06-3.48 4.06-3.48 4.06l-17.39 0.58c3.47 5.21 11.59 4.64 11.59 4.64l15.65 0.58c6.95 0 1.74 2.32 1.74 2.32l-13.91 2.32c-1.16 5.8 14.49 4.06 14.49 4.06 9.85 0 8.69 2.32 8.69 2.32-0.58 4.06-5.22 3.48-5.22 3.48-12.17 3.48-2.32 8.7-2.32 8.7 11.01 8.69 3.48 17.39 3.48 17.39l-26.66 29.56c-15.65 1.74-13.33-23.18-13.33-23.18 3.48-0.58 9.86-6.38 9.86-6.38 8.11-9.85-7.53-16.81-7.53-16.81-16.23-6.37-23.76 5.8-23.76 5.8-9.27 13.33 0 29.56 0 29.56 6.95 11.59 4.64 20.86 4.64 20.86-30.72 2.9-33.04 30.72-33.04 30.72l-3.48 3.48-139.1-111.28c-9.86-9.28-21.45-2.9-21.45-2.9-8.69 13.33-0.58 19.71-0.58 19.71l139.1 120.56c-31.3 12.75-20.28 43.47-20.28 43.47l-2.9 2.9c-45.21-0.58-33.62 46.37-33.62 46.37l-63.18 86.94 2.9 2.32 70.71-79.41c49.26 7.53 46.37-37.09 46.37-37.09 36.51-0.58 45.21-24.35 45.21-24.35l44.62 39.99c11.59 7.53 5.8 16.23 5.8 16.23l-4.64 14.49c-12.75 47.53 40.57 70.13 40.57 70.13 61.44 10.43 81.15-53.32 81.15-53.32 16.23-52.16-22.6-77.66-22.6-77.66-26.08-16.81-56.22 2.32-56.22 2.32-10.43 7.53-19.12-0.58-19.12-0.58l-44.63-37.67 1.74-2.9c31.3-8.69 24.93-33.03 24.93-33.03 50.42 17.39 60.27-9.86 60.27-9.86 8.69-9.27 0.58-19.7 0.58-19.7-7.53-8.7-16.81-6.95-16.81-6.95-6.95 1.74-7.54 13.33-7.54 13.33-4.63 4.06-8.69 4.64-8.69 4.64-17.39 6.95-25.5-9.28-25.5-9.28l25.5-26.66c7.53-8.11 10.43-7.54 10.43-7.54 10.43-3.48 20.29 5.21 20.29 5.21 3.48 5.22 3.48 0 3.48 0-1.16-8.12 3.48-10.43 3.48-10.43-0.58 22.6 6.96 23.76 6.96 23.76-1.16-4.06 1.16-12.17 1.16-12.17 1.74-5.22 3.48 0 3.48 0 1.74 22.02 6.96 21.44 6.96 21.44 1.74-8.11 4.64-9.85 4.64-9.85 0.58 10.43 5.22 27.24 5.22 27.24 5.21 18.55 5.21-12.17 5.21-12.17 1.16-5.8 1.74 0 1.74 0 2.32 35.35 10.43 35.35 10.43 35.35-1.16-2.32 0-32.46 0-32.46 1.74-5.22 3.48 0.58 3.48 0.58 0 32.46 8.69 56.22 8.69 56.22 4.03 12.71 8.08 7.5 8.09 7.49z" p-id="2947"></path></svg>