<?xml version="1.0" standalone="no"?><!DOCTYPE svg PUBLIC "-//W3C//DTD SVG 1.1//EN" "http://www.w3.org/Graphics/SVG/1.1/DTD/svg11.dtd"><svg t="1656408565801" class="icon" viewBox="0 0 1216 1024" version="1.1" xmlns="http://www.w3.org/2000/svg" p-id="4514" xmlns:xlink="http://www.w3.org/1999/xlink" width="19" height="16"><defs><style type="text/css">@font-face { font-family: feedback-iconfont; src: url("//at.alicdn.com/t/font_1031158_u69w8yhxdu.woff2?t=1630033759944") format("woff2"), url("//at.alicdn.com/t/font_1031158_u69w8yhxdu.woff?t=1630033759944") format("woff"), url("//at.alicdn.com/t/font_1031158_u69w8yhxdu.ttf?t=1630033759944") format("truetype"); }
</style></defs><path d="M192 768h64V256h-64v512z m192-512h-64v384h64V256z m128 0h-64v384h64V256z m128 0h-64v384h64V256z m128 0h-64v384h64V256z m64 384h64V256h-64v384z m128 128h64V256h-64v512z m-576 0h64v-64h-64v64z m128 0h64v-64h-64v64z m128 0h64v-64h-64v64z m128 0h64v-64h-64v64zM1113.6 0H102.4C44.8 0 0 44.8 0 102.4v819.2C0 979.2 44.8 1024 102.4 1024h1011.2c57.6 0 102.4-44.8 102.4-102.4V102.4C1216 44.8 1171.2 0 1113.6 0z m38.4 921.6c0 19.2-19.2 38.4-38.4 38.4H102.4C83.2 960 64 940.8 64 921.6V102.4C64 83.2 83.2 64 102.4 64h1011.2c19.2 0 38.4 19.2 38.4 38.4v819.2z" p-id="4515"></path></svg>