<?xml version="1.0" standalone="no"?><!DOCTYPE svg PUBLIC "-//W3C//DTD SVG 1.1//EN" "http://www.w3.org/Graphics/SVG/1.1/DTD/svg11.dtd"><svg t="1656408208298" class="icon" viewBox="0 0 1024 1024" version="1.1" xmlns="http://www.w3.org/2000/svg" p-id="3512" xmlns:xlink="http://www.w3.org/1999/xlink" width="16" height="16"><defs><style type="text/css">@font-face { font-family: feedback-iconfont; src: url("//at.alicdn.com/t/font_1031158_u69w8yhxdu.woff2?t=1630033759944") format("woff2"), url("//at.alicdn.com/t/font_1031158_u69w8yhxdu.woff?t=1630033759944") format("woff"), url("//at.alicdn.com/t/font_1031158_u69w8yhxdu.ttf?t=1630033759944") format("truetype"); }
</style></defs><path d="M872.6 82H151.4c-46.1 0-83.5 37.5-83.5 83.5v721.3c0 46 37.5 83.5 83.5 83.5h721.2c46 0 83.5-37.5 83.5-83.5V165.5c0-46-37.4-83.5-83.5-83.5z m28 804.8c0 15.5-12.5 28-28 28H151.4c-15.5 0-28-12.5-28-28V165.5c0-15.5 12.6-28 28-28h721.2c15.5 0 28 12.5 28 28v721.3z" p-id="3513"></path><path d="M764.3 491.5c-3.5-6.5-9.5-11.2-16.5-13.3-7.1-2.1-14.7-1.3-21.1 2.3l-99.2 54.3c-13.4 7.4-18.4 24.2-11 37.7 7.4 13.5 24.4 18.4 37.7 11l49.2-26.9c-13.3 83.5-79.6 148.8-163.5 161V415.1h111c15.3 0 27.8-12.4 27.8-27.8s-12.4-27.8-27.8-27.8h-111V304h27.8c15.3 0 27.8-12.4 27.8-27.8s-12.4-27.8-27.8-27.8h-111c-15.3 0-27.8 12.4-27.8 27.8s12.4 27.8 27.8 27.8h27.8v55.5h-111c-15.3 0-27.8 12.4-27.8 27.8s12.4 27.8 27.8 27.8h111v302.5c-84.9-12.3-151.7-79.3-163.8-164.3l55.1 30.2c13.4 7.4 30.3 2.5 37.7-11 7.4-13.4 2.4-30.3-11-37.7l-99.2-54.3c-13.3-7.4-30.3-2.5-37.7 11l-54.3 99.2c-7.4 13.4-2.4 30.3 11 37.7 4.2 2.3 8.8 3.4 13.3 3.4 9.8 0 19.3-5.2 24.3-14.4l12.9-23.6c27.3 96 109.9 167.9 211.6 179.3v30.6c0 15.3 12.4 27.8 27.8 27.8s27.8-12.4 27.8-27.8v-30.6c104-11.7 188.4-86.6 213.6-185.9l16.5 30.2c5 9.2 14.5 14.4 24.3 14.4 4.5 0 9.1-1.1 13.3-3.4 13.4-7.4 18.4-24.2 11-37.7l-54.4-99.2z" p-id="3514"></path></svg>