<?xml version="1.0" standalone="no"?><!DOCTYPE svg PUBLIC "-//W3C//DTD SVG 1.1//EN" "http://www.w3.org/Graphics/SVG/1.1/DTD/svg11.dtd"><svg t="1656408194067" class="icon" viewBox="0 0 1024 1024" version="1.1" xmlns="http://www.w3.org/2000/svg" p-id="3087" xmlns:xlink="http://www.w3.org/1999/xlink" width="16" height="16"><defs><style type="text/css">@font-face { font-family: feedback-iconfont; src: url("//at.alicdn.com/t/font_1031158_u69w8yhxdu.woff2?t=1630033759944") format("woff2"), url("//at.alicdn.com/t/font_1031158_u69w8yhxdu.woff?t=1630033759944") format("woff"), url("//at.alicdn.com/t/font_1031158_u69w8yhxdu.ttf?t=1630033759944") format("truetype"); }
</style></defs><path d="M669.024 16.096v0.992c-4.048 0-21.76-1.488-66.32-0.992h-390.08A131.328 131.328 0 0 0 80 146.16v728.864a131.328 131.328 0 0 0 132.624 130.064h588.928a131.328 131.328 0 0 0 132.64-130.064V276.176L669.024 16.144z m200.864 262.128L734.8 276.24h4.544c-30.832 0-74.352-29.216-74.352-64.784l-1.04-134.512z m7.104 606.208A67.456 67.456 0 0 1 809.2 951.2H204.976a67.2 67.2 0 0 1-67.792-66.768v-747.2a67.456 67.456 0 0 1 67.792-66.752h398.768q-0.56 66.512 0.992 133.024a134.4 134.4 0 0 0 136.128 133.024h136.128z m0 0" p-id="3088"></path><path d="M417.232 403.68a37.2 37.2 0 0 1 74.384 0v439.504a37.2 37.2 0 0 1-74.384 0zM224 403.664a37.168 37.168 0 0 1 74.336 0v439.504a37.168 37.168 0 1 1-74.336 0z m364.208 91.44h92.336l-21.936 21.936a26.336 26.336 0 0 0 0 37.104l2.56 2.544a26.4 26.4 0 0 0 37.168 0l71.808-71.648a26.304 26.304 0 0 0 7.584-19.648 25.84 25.84 0 0 0-7.584-19.648l-71.744-71.68a26.4 26.4 0 0 0-37.168 0l-2.56 2.544a26.336 26.336 0 0 0 0 37.12l21.936 21.936h-92.4a29.68 29.68 0 1 0 0 59.36z m137.44 234.304v-59.2h21.28v79.696h-67.792v76.8h57.696v-59.2h21.28v90.16h-21.28v-10.752H599.44v10.816h-21.28v-90.16h21.28v59.2h57.696v-76.8h-67.792v-79.696h21.28v59.2h46.512v-76.16h22v76.096z" p-id="3089"></path></svg>