<?xml version="1.0" standalone="no"?><!DOCTYPE svg PUBLIC "-//W3C//DTD SVG 1.1//EN" "http://www.w3.org/Graphics/SVG/1.1/DTD/svg11.dtd"><svg t="1656408362833" class="icon" viewBox="0 0 1024 1024" version="1.1" xmlns="http://www.w3.org/2000/svg" p-id="3796" xmlns:xlink="http://www.w3.org/1999/xlink" width="16" height="16"><defs><style type="text/css">@font-face { font-family: feedback-iconfont; src: url("//at.alicdn.com/t/font_1031158_u69w8yhxdu.woff2?t=1630033759944") format("woff2"), url("//at.alicdn.com/t/font_1031158_u69w8yhxdu.woff?t=1630033759944") format("woff"), url("//at.alicdn.com/t/font_1031158_u69w8yhxdu.ttf?t=1630033759944") format("truetype"); }
</style></defs><path d="M502.784 743.834l44.032-43.418 176.333 173.466-44.032 43.417-176.333-173.465z m0 0" p-id="3797"></path><path d="M953.549 580.198l44.032 43.418L688.947 927.13l-44.032-43.418L953.55 580.198z m-702.874 25.396h157.696c17.408 0 31.54 14.13 31.54 31.539s-14.132 31.539-31.54 31.539H250.675c-17.408 0-31.539-14.131-31.539-31.54s14.131-31.538 31.54-31.538z m0-189.236h378.47c17.409 0 31.54 14.132 31.54 31.54s-14.131 31.539-31.54 31.539h-378.47c-17.408 0-31.539-14.131-31.539-31.54s14.131-31.539 31.54-31.539z m0-189.235h378.47c17.409 0 31.54 14.131 31.54 31.54s-14.131 31.539-31.54 31.539h-378.47c-17.408 0-31.539-14.132-31.539-31.54s14.131-31.539 31.54-31.539z m0 0" p-id="3798"></path><path d="M723.763 37.888H156.058C86.426 37.888 29.9 94.413 29.9 164.045v693.862c0 69.632 56.525 126.157 126.157 126.157h410.01v-63.078h-410.01c-34.816 0-63.079-28.263-63.079-63.079V164.045c0-34.816 28.263-63.079 63.079-63.079h567.705c34.816 0 63.079 28.263 63.079 63.079v378.47h63.078v-378.47c0-69.632-56.525-126.157-126.157-126.157z m0 0" p-id="3799"></path></svg>