<?xml version="1.0" standalone="no"?><!DOCTYPE svg PUBLIC "-//W3C//DTD SVG 1.1//EN" "http://www.w3.org/Graphics/SVG/1.1/DTD/svg11.dtd"><svg t="1656408573340" class="icon" viewBox="0 0 1024 1024" version="1.1" xmlns="http://www.w3.org/2000/svg" p-id="4796" xmlns:xlink="http://www.w3.org/1999/xlink" width="16" height="16"><defs><style type="text/css">@font-face { font-family: feedback-iconfont; src: url("//at.alicdn.com/t/font_1031158_u69w8yhxdu.woff2?t=1630033759944") format("woff2"), url("//at.alicdn.com/t/font_1031158_u69w8yhxdu.woff?t=1630033759944") format("woff"), url("//at.alicdn.com/t/font_1031158_u69w8yhxdu.ttf?t=1630033759944") format("truetype"); }
</style></defs><path d="M863.077314 1023.998H160.922686c-35.267931 0-63.832875-28.564944-63.832876-63.704876V159.261689c0-35.203931 28.596944-61.24688 63.832876-61.24688h223.412563v63.895875H192.838623c-17.617966 0-31.915938 14.266972-31.915937 31.851938v734.678565c0 17.585966 14.297972 31.851938 31.915937 31.851937h638.322754c17.617966 0 31.915938-14.265972 31.915937-31.851937V193.794621c0-17.616966-14.297972-31.883938-31.915937-31.883937H639.664751V98.014809h223.412563c35.235931 0 63.832875 26.042949 63.832876 61.24688v801.031435c0 35.139931-28.596944 63.704876-63.832876 63.704876zM416.251187 384.972248h319.162377v64.151875H416.250187v-64.151875z m0 159.868688l319.162377-0.669999v64.533874H416.250187v-63.863875z m319.162377 222.072566l-319.162377 1.371997v-63.831875h319.162377v62.459878zM288.586436 385.259248l63.832876-0.989999v64.821874h-63.832876v-63.831875z m0 158.207691l63.832876 1.372997v63.863875h-63.832876V543.468939z m63.832876 224.81756l-63.832876-2.041996v-61.789879h63.832876v63.831875z m351.077314-572.511881c17.649966 0 31.916938 14.266972 31.916938 31.851937v29.969942H288.586436v-29.969942c0-17.553966 14.266972-31.851938 31.916938-31.851937h95.747813s0.382999-45.288912 0.382999-97.056811C416.634186 44.937912 458.157105 0 512 0s96.801811 47.235908 96.801811 99.035807c0 55.725891-1.052998 96.737811-1.052998 96.737811h95.747813zM512 95.556813c-17.649966 0-31.915938 16.787967-31.915938 34.373933 0 17.617966 14.297972 31.915938 31.915938 31.915938 17.649966 0 31.915938-14.297972 31.915938-31.915938 0-17.553966-14.265972-34.373933-31.915938-34.373933z" p-id="4797"></path></svg>