<?xml version="1.0" standalone="no"?><!DOCTYPE svg PUBLIC "-//W3C//DTD SVG 1.1//EN" "http://www.w3.org/Graphics/SVG/1.1/DTD/svg11.dtd"><svg t="1656408561529" class="icon" viewBox="0 0 1024 1024" version="1.1" xmlns="http://www.w3.org/2000/svg" p-id="4371" xmlns:xlink="http://www.w3.org/1999/xlink" width="16" height="16"><defs><style type="text/css">@font-face { font-family: feedback-iconfont; src: url("//at.alicdn.com/t/font_1031158_u69w8yhxdu.woff2?t=1630033759944") format("woff2"), url("//at.alicdn.com/t/font_1031158_u69w8yhxdu.woff?t=1630033759944") format("woff"), url("//at.alicdn.com/t/font_1031158_u69w8yhxdu.ttf?t=1630033759944") format("truetype"); }
</style></defs><path d="M924.038 182.857H99.962c-32.183 0-58.514 26.332-58.514 58.514v512c0 32.183 26.331 58.515 58.514 58.515h560.762c-15.604-11.216-29.257-24.381-41.448-39.01h-512L409.6 534.43c8.29-6.826 9.752-19.017 3.413-27.306-6.826-8.29-19.017-9.753-27.306-3.414L80.945 744.107V249.173L476.89 528.091c10.24 6.827 21.456 10.728 33.159 10.728s22.918-3.413 33.158-10.728L944.03 245.76v260.876c17.067 20.48 30.72 44.861 39.01 71.193V241.37c-0.488-32.182-26.819-58.514-59.002-58.514zM520.29 496.397c-6.827 4.875-14.629 4.875-20.968 0l-390.095-274.53H909.41l-389.12 274.53z" p-id="4372"></path><path d="M792.381 460.8c-104.838 0-190.171 85.333-190.171 190.171s85.333 190.172 190.171 190.172S982.552 755.81 982.552 650.97 897.22 460.8 792.381 460.8z m0 341.333c-83.383 0-151.162-67.779-151.162-151.162s67.78-151.161 151.162-151.161 151.162 67.779 151.162 151.161-67.78 151.162-151.162 151.162z" p-id="4373"></path><path d="M861.135 574.415L762.15 682.18l-49.25-45.349c-7.802-7.314-20.48-6.826-27.794 0.976-7.315 7.802-6.827 20.48 0.975 27.794l77.531 71.68L888.93 601.234c7.314-7.802 6.826-20.48-0.976-27.794-7.314-7.314-19.504-6.827-26.819 0.975z" p-id="4374"></path></svg>