<?xml version="1.0" standalone="no"?><!DOCTYPE svg PUBLIC "-//W3C//DTD SVG 1.1//EN" "http://www.w3.org/Graphics/SVG/1.1/DTD/svg11.dtd"><svg t="1656408578059" class="icon" viewBox="0 0 1024 1024" version="1.1" xmlns="http://www.w3.org/2000/svg" p-id="4937" xmlns:xlink="http://www.w3.org/1999/xlink" width="16" height="16"><defs><style type="text/css">@font-face { font-family: feedback-iconfont; src: url("//at.alicdn.com/t/font_1031158_u69w8yhxdu.woff2?t=1630033759944") format("woff2"), url("//at.alicdn.com/t/font_1031158_u69w8yhxdu.woff?t=1630033759944") format("woff"), url("//at.alicdn.com/t/font_1031158_u69w8yhxdu.ttf?t=1630033759944") format("truetype"); }
</style></defs><path d="M576 128H448c-32.82 0-59.87 24.71-63.57 56.54L384 192h256c0-32.82-24.71-59.87-56.54-63.57L576 128z m320 128H128v192h192v-32c0-17.67 14.33-32 32-32h320c17.67 0 32 14.33 32 32v32h192V256zM384 448v64h256v-64H384z m512 64H704v32c0 17.67-14.33 32-32 32H352c-17.67 0-32-14.33-32-32v-32H128v384h768V512z m64 384c0 35.35-28.65 64-64 64H128c-35.35 0-64-28.65-64-64V256c0-35.35 28.65-64 64-64h192c0-70.69 57.31-128 128-128h128c70.69 0 128 57.31 128 128h192c35.35 0 64 28.65 64 64v640z" p-id="4938" fill="#ffffff"></path></svg>