<?xml version="1.0" standalone="no"?><!DOCTYPE svg PUBLIC "-//W3C//DTD SVG 1.1//EN" "http://www.w3.org/Graphics/SVG/1.1/DTD/svg11.dtd"><svg t="1656408160175" class="icon" viewBox="0 0 1024 1024" version="1.1" xmlns="http://www.w3.org/2000/svg" p-id="2094" xmlns:xlink="http://www.w3.org/1999/xlink" width="16" height="16"><defs><style type="text/css">@font-face { font-family: feedback-iconfont; src: url("//at.alicdn.com/t/font_1031158_u69w8yhxdu.woff2?t=1630033759944") format("woff2"), url("//at.alicdn.com/t/font_1031158_u69w8yhxdu.woff?t=1630033759944") format("woff"), url("//at.alicdn.com/t/font_1031158_u69w8yhxdu.ttf?t=1630033759944") format("truetype"); }
</style></defs><path d="M504.03 224.787a86.813 86.813 0 0 1-69.381-84.937V18.517a17.303 17.303 0 1 1 34.69 0v52.036a86.216 86.216 0 0 1 103.988 0V18.517a17.303 17.303 0 1 1 34.691 0V139.85c0 41.85-29.832 76.882-69.34 84.937v20.84a86.813 86.813 0 0 1 69.34 84.938 86.685 86.685 0 1 1-160.243 45.729l-344.566 127.64h804.839L625.619 390.912a17.345 17.345 0 1 1 12.87-32.177l322.703 129.09c6.777 2.685 10.91 9.205 10.91 16.11h34.649v27.488a59.027 59.027 0 0 1-17.303 41.765l-0.043 0.085a59.101 59.101 0 0 0-17.302 41.766v297.856c0 15.641 6.18 30.685 17.26 41.766l0.128 0.128a58.961 58.961 0 0 1 17.26 41.722V1024H1.267v-27.531a59.027 59.027 0 0 1 17.303-41.766l0.086-0.085c11.08-11.08 17.26-26.125 17.26-41.765V615.082a59.027 59.027 0 0 0-17.303-41.766 59.154 59.154 0 0 1-17.346-41.85v-27.532h34.649c0-7.074 4.347-13.68 11.336-16.28l388.42-143.878a86.983 86.983 0 0 1-1.023-13.211 17.303 17.303 0 1 1 34.69 0.767l45.985-17.047a17.26 17.26 0 0 1 13.126 0.426l16.707 6.69a17.345 17.345 0 1 1-12.87 32.22l-11.21-4.475-39.634 14.703a51.909 51.909 0 0 0 91.927-33.284c0-28.682-23.355-51.994-51.994-51.994a17.303 17.303 0 0 1-17.388-17.346v-36.438z m-51.993 729.874a17.303 17.303 0 0 0 17.303-17.346V590.62a17.303 17.303 0 1 0-34.691 0v346.696c0 9.59 7.756 17.346 17.345 17.346z m-104.073 0a17.303 17.303 0 0 0 17.345-17.346V590.62a17.303 17.303 0 1 0-34.648 0v346.696c0 9.59 7.756 17.346 17.303 17.346z m-103.988 0a17.303 17.303 0 0 0 17.346-17.346V590.62a17.303 17.303 0 1 0-34.691 0v346.696c0 9.59 7.756 17.346 17.345 17.346z m-103.987 0a17.303 17.303 0 0 0 17.302-17.346V590.62a17.303 17.303 0 1 0-34.69 0v346.696c0 9.59 7.756 17.346 17.345 17.346z m728.083 0a17.303 17.303 0 0 0 17.346-17.346V590.62a17.303 17.303 0 1 0-34.691 0v346.696c0 9.59 7.756 17.346 17.345 17.346z m-103.987 0a17.303 17.303 0 0 0 17.303-17.346V590.62a17.303 17.303 0 1 0-34.691 0v346.696c0 9.59 7.756 17.346 17.345 17.346z m-104.03 0a17.303 17.303 0 0 0 17.302-17.346V590.62a17.303 17.303 0 1 0-34.648 0v346.696c0 9.59 7.756 17.346 17.345 17.346z m-104.03 0a17.303 17.303 0 0 0 17.345-17.346V590.62a17.303 17.303 0 1 0-34.691 0v346.696c0 9.59 7.756 17.346 17.345 17.346z" p-id="2095"></path></svg>