<?xml version="1.0" standalone="no"?><!DOCTYPE svg PUBLIC "-//W3C//DTD SVG 1.1//EN" "http://www.w3.org/Graphics/SVG/1.1/DTD/svg11.dtd"><svg t="1656408174676" class="icon" viewBox="0 0 1024 1024" version="1.1" xmlns="http://www.w3.org/2000/svg" p-id="2519" xmlns:xlink="http://www.w3.org/1999/xlink" width="16" height="16"><defs><style type="text/css">@font-face { font-family: feedback-iconfont; src: url("//at.alicdn.com/t/font_1031158_u69w8yhxdu.woff2?t=1630033759944") format("woff2"), url("//at.alicdn.com/t/font_1031158_u69w8yhxdu.woff?t=1630033759944") format("woff"), url("//at.alicdn.com/t/font_1031158_u69w8yhxdu.ttf?t=1630033759944") format("truetype"); }
</style></defs><path d="M877.714 73.143a48.762 48.762 0 0 1 48.762 48.762v753.908a48.762 48.762 0 0 1-68.559 44.568l-150.87-67.048L512 950.857l-195.048-97.524-150.869 67.048a48.762 48.762 0 0 1-68.56-44.568V121.905a48.762 48.762 0 0 1 48.763-48.762h731.428zM512 463.238a48.762 48.762 0 0 0-24.381 90.99l-0.024 30.915h-48.738v48.762h48.738v168.228a122.051 122.051 0 0 1-95.062-95.085h46.324l-73.143-73.143-73.143 73.143 50.493 0.024a170.715 170.715 0 0 0 337.872 0l50.493-0.024-73.143-73.143-73.143 73.143h46.324a122.051 122.051 0 0 1-95.086 95.085V633.905h48.762v-48.762h-48.738v-30.915A48.762 48.762 0 0 0 512 463.238z m292.571-97.524H219.43a24.381 24.381 0 0 0-2.853 48.592l2.853 0.17h585.14a24.381 24.381 0 0 0 0-48.762z m0-170.666H219.43a24.381 24.381 0 0 0-2.853 48.59l2.853 0.172h585.14a24.381 24.381 0 0 0 0-48.762z" p-id="2520"></path></svg>