<?xml version="1.0" standalone="no"?><!DOCTYPE svg PUBLIC "-//W3C//DTD SVG 1.1//EN" "http://www.w3.org/Graphics/SVG/1.1/DTD/svg11.dtd"><svg t="1656408570057" class="icon" viewBox="0 0 1024 1024" version="1.1" xmlns="http://www.w3.org/2000/svg" p-id="4655" xmlns:xlink="http://www.w3.org/1999/xlink" width="16" height="16"><defs><style type="text/css">@font-face { font-family: feedback-iconfont; src: url("//at.alicdn.com/t/font_1031158_u69w8yhxdu.woff2?t=1630033759944") format("woff2"), url("//at.alicdn.com/t/font_1031158_u69w8yhxdu.woff?t=1630033759944") format("woff"), url("//at.alicdn.com/t/font_1031158_u69w8yhxdu.ttf?t=1630033759944") format("truetype"); }
</style></defs><path d="M973.824 368.128c-2.048-12.288-9.216-23.04-19.456-30.208L542.208 46.592c-16.384-11.264-38.4-11.264-55.296 0L74.752 337.92c-21.504 14.336-27.136 43.52-12.288 65.024s43.52 27.136 65.024 12.288c0.512 0 0.512-0.512 1.024-0.512l23.552-16.384v321.536H325.12V665.6c0-3.072 2.048-5.12 5.12-5.12 1.024 0 2.048 0.512 3.072 1.024l174.08 119.808c3.072 2.048 4.096 6.656 1.536 9.728l-1.536 1.536-174.08 119.296c-2.56 1.536-5.632 1.024-7.168-1.536-0.512-1.024-1.024-2.048-1.024-2.56v-59.904H151.552v68.608c0 12.8 5.12 25.6 14.336 34.816 9.216 9.216 21.504 14.336 34.304 14.336h628.736c12.8 0 25.6-5.12 34.304-14.336 9.216-9.216 14.336-21.504 14.336-34.816V397.824l23.552 16.384c20.992 14.848 50.176 9.728 65.024-11.264 7.168-10.24 10.24-22.528 7.68-34.816z m-482.816 192c0 8.704-7.168 15.36-15.36 15.36H363.52c-8.704 0-15.36-7.168-15.36-15.36v-49.152c0-8.704 7.168-15.36 15.36-15.36h111.616c8.704 0 15.36 7.168 15.36 15.36l0.512 49.152z m0-128c0 8.704-7.168 15.36-15.36 15.36H363.52c-8.704 0-15.36-7.168-15.36-15.36v-49.152c0-8.704 7.168-15.36 15.36-15.36h111.616c8.704 0 15.36 7.168 15.36 15.36l0.512 49.152z m190.464 128c0 8.704-7.168 15.36-15.36 15.36H554.496c-8.704 0-15.36-7.168-15.36-15.36v-49.152c0-8.704 7.168-15.36 15.36-15.36H665.6c8.704 0 15.36 7.168 15.36 15.36v49.152z m0-128c0 8.704-7.168 15.36-15.36 15.36H554.496c-8.704 0-15.36-7.168-15.36-15.36v-49.152c0-8.704 7.168-15.36 15.36-15.36H665.6c8.704 0 15.36 7.168 15.36 15.36v49.152z" p-id="4656"></path></svg>