<?xml version="1.0" standalone="no"?><!DOCTYPE svg PUBLIC "-//W3C//DTD SVG 1.1//EN" "http://www.w3.org/Graphics/SVG/1.1/DTD/svg11.dtd"><svg t="1656408178398" class="icon" viewBox="0 0 1024 1024" version="1.1" xmlns="http://www.w3.org/2000/svg" p-id="2660" xmlns:xlink="http://www.w3.org/1999/xlink" width="16" height="16"><defs><style type="text/css">@font-face { font-family: feedback-iconfont; src: url("//at.alicdn.com/t/font_1031158_u69w8yhxdu.woff2?t=1630033759944") format("woff2"), url("//at.alicdn.com/t/font_1031158_u69w8yhxdu.woff?t=1630033759944") format("woff"), url("//at.alicdn.com/t/font_1031158_u69w8yhxdu.ttf?t=1630033759944") format("truetype"); }
</style></defs><path d="M973.76 928a29.76 29.76 0 0 0-24-13.12 229.76 229.76 0 0 1-96-24.32c-15.68-7.04-32-14.4-47.04-20.48A210.24 210.24 0 0 0 768 859.84l46.08-102.4 32-71.36c2.88-5.76 5.44-11.52 8-17.28a77.12 77.12 0 0 0 6.4-43.2 73.6 73.6 0 0 0-37.76-49.6l-26.88-16.64V260.16a32 32 0 0 0-32-32H655.68V128a32 32 0 0 0-32-32H537.6V78.72a74.24 74.24 0 0 0-3.2-32 32 32 0 0 0-50.88-6.08 47.04 47.04 0 0 0-7.36 32V96H390.4a32 32 0 0 0-30.08 20.16 42.56 42.56 0 0 0-2.24 17.92v96h-86.4a61.44 61.44 0 0 0-43.84 8.32 38.72 38.72 0 0 0-9.92 32v286.4l-24 14.4a71.68 71.68 0 0 0-30.08 96l6.72 13.12q38.08 72.96 75.2 145.92l16.64 32a265.6 265.6 0 0 0-51.52 15.68C192 881.28 176.32 889.28 160 896a274.24 274.24 0 0 1-55.04 14.72 280.32 280.32 0 0 1-32 2.88 52.16 52.16 0 0 0-15.68 0 32 32 0 0 0-13.44 9.28 32 32 0 0 0 15.68 49.92 125.12 125.12 0 0 0 34.56 0c11.2 0 22.08-2.56 32-4.48A487.68 487.68 0 0 0 224 935.68a171.84 171.84 0 0 1 64-18.24 192 192 0 0 1 70.72 16.64c21.76 8.96 43.2 19.2 64 26.88a267.52 267.52 0 0 0 69.12 13.76 365.76 365.76 0 0 0 143.36-32 215.04 215.04 0 0 1 136.32-19.52 398.08 398.08 0 0 1 56 24.96 324.8 324.8 0 0 0 53.12 20.48 217.6 217.6 0 0 0 32 6.08 128 128 0 0 0 35.2 1.92 32 32 0 0 0 22.72-48zM700.8 860.48a480 480 0 0 0-86.4 26.56 300.8 300.8 0 0 1-113.92 26.56A345.28 345.28 0 0 1 392 879.68a338.88 338.88 0 0 0-58.56-19.2L288 770.56l-64-124.48-4.16-8a11.2 11.2 0 0 1 4.16-14.72l33.92-19.52 134.72-78.72 64-36.48 19.84-11.52V699.2a32 32 0 0 0 20.16 29.76 32 32 0 0 0 41.28-28.48V473.92l64 37.76 138.24 81.6 45.76 27.2 9.28 5.44A8.96 8.96 0 0 1 800 640c-5.44 13.12-11.52 25.6-16.96 38.4l-32 71.36-49.92 112z m35.2-492.8v152.64l-64-38.4-123.2-72.64c-7.68-4.8-15.36-9.92-23.36-14.08a32 32 0 0 0-32 0l-12.8 7.36-119.04 70.4-60.48 35.52L280.96 520V290.88H736v76.48zM595.84 227.84H421.12v-70.72h174.72z" p-id="2661"></path></svg>