<?xml version="1.0" standalone="no"?><!DOCTYPE svg PUBLIC "-//W3C//DTD SVG 1.1//EN" "http://www.w3.org/Graphics/SVG/1.1/DTD/svg11.dtd"><svg t="1656408165706" class="icon" viewBox="0 0 1024 1024" version="1.1" xmlns="http://www.w3.org/2000/svg" p-id="2235" xmlns:xlink="http://www.w3.org/1999/xlink" width="16" height="16"><defs><style type="text/css">@font-face { font-family: feedback-iconfont; src: url("//at.alicdn.com/t/font_1031158_u69w8yhxdu.woff2?t=1630033759944") format("woff2"), url("//at.alicdn.com/t/font_1031158_u69w8yhxdu.woff?t=1630033759944") format("woff"), url("//at.alicdn.com/t/font_1031158_u69w8yhxdu.ttf?t=1630033759944") format("truetype"); }
</style></defs><path d="M814.945 657.322l-98.418 98.418-49.722-49.722a20.504 20.504 0 0 0-28.706 28.706l61.683 61.682a19.308 19.308 0 0 0 2.05 3.076 22.042 22.042 0 0 0 29.902 0 19.137 19.137 0 0 0 2.05-3.076l110.38-110.379a20.504 20.504 0 1 0-28.877-28.876zM691.068 0H332.249a25.63 25.63 0 0 0-25.63 25.63v116.018a25.63 25.63 0 0 0 25.63 25.63h358.819a25.63 25.63 0 0 0 25.63-25.63V25.63A25.63 25.63 0 0 0 691.067 0z m-4.614 116.53a25.8 25.8 0 0 1-25.63 25.63H363.176a25.8 25.8 0 0 1-25.63-25.63V51.26a25.63 25.63 0 0 1 25.63-25.63h297.648a25.63 25.63 0 0 1 25.63 25.63z" p-id="2236"></path><path d="M406.917 68.005h210.166q13.156 0 13.156 13.156v-0.17q0 13.156-13.156 13.156H406.917q-13.156 0-13.156-13.157v0.171q0-13.156 13.156-13.156z" p-id="2237"></path><path d="M877.824 81.161h-191.37v35.37a25.8 25.8 0 0 1-25.63 25.63H363.176a25.8 25.8 0 0 1-25.63-25.63V81.16h-191.37a68.346 68.346 0 0 0-68.347 68.347v806.146A68.346 68.346 0 0 0 146.176 1024h731.648a68.346 68.346 0 0 0 68.347-68.346V149.508a68.346 68.346 0 0 0-68.347-68.347zM245.62 319.007h385.303a30.585 30.585 0 1 1 0 61.17H244.936a30.585 30.585 0 0 1 0-61.17z m175.65 516.015H244.936a30.585 30.585 0 0 1 0-61.17H421.27a30.585 30.585 0 0 1 0 61.17z m58.436-151.558h-234.77a30.585 30.585 0 0 1 0-61.17h234.77a30.585 30.585 0 1 1 0 61.17z m65.442-151.558H244.936a30.585 30.585 0 0 1 0-61.17h300.212a30.585 30.585 0 1 1 0 61.17z m329.088 164.373a190.345 190.345 0 0 1-110.38 172.233l-26.996 12.473-26.826-12.473a190.174 190.174 0 0 1-110.38-172.233v-78.086a9.056 9.056 0 0 1 5.81-8.543l128.15-48.184a9.227 9.227 0 0 1 6.321 0l128.15 48.184a9.056 9.056 0 0 1 5.81 8.543z" p-id="2238"></path></svg>