<?xml version="1.0" standalone="no"?><!DOCTYPE svg PUBLIC "-//W3C//DTD SVG 1.1//EN" "http://www.w3.org/Graphics/SVG/1.1/DTD/svg11.dtd"><svg t="1656408199341" class="icon" viewBox="0 0 1024 1024" version="1.1" xmlns="http://www.w3.org/2000/svg" p-id="3229" xmlns:xlink="http://www.w3.org/1999/xlink" width="16" height="16"><defs><style type="text/css">@font-face { font-family: feedback-iconfont; src: url("//at.alicdn.com/t/font_1031158_u69w8yhxdu.woff2?t=1630033759944") format("woff2"), url("//at.alicdn.com/t/font_1031158_u69w8yhxdu.woff?t=1630033759944") format("woff"), url("//at.alicdn.com/t/font_1031158_u69w8yhxdu.ttf?t=1630033759944") format("truetype"); }
</style></defs><path d="M923.591 181.476a47.787 47.787 0 0 0-23.609-37.547 58.311 58.311 0 0 0-46.649-9.387 41.529 41.529 0 0 0-23.609 46.934c23.61 0 37.547 19.057 42.383 42.382v3.698h9.67a41.244 41.244 0 0 0 42.383-37.547zM326.258 430.933l-14.222-14.222-23.325-23.324-174.933-174.08-8.534 8.249A774.827 774.827 0 0 1 44.09 288.71l-14.222 23.325 23.609 23.608 18.773 18.774 41.529-41.53h4.55l32.996 32.996c4.836 4.836 4.836 4.836 0 4.836L119.182 384l-5.404 4.551c-4.836 0-4.836 4.836 0 4.836l33.849 33.28h9.386a256 256 0 0 0 37.547-32.711s4.551-4.836 4.551 0l37.831 37.546c4.551 4.551 0 4.551 0 4.551l-37.83 37.263c-4.552 4.55-4.552 4.55 0 4.55l37.83 37.832h4.551L246.33 512 256 501.476l13.938-14.223 9.67-9.386 46.934-46.934c-4.835 4.551 0 4.551 0 0z m0 0" p-id="3230"></path><path d="M995.556 576.569V402.773a126.293 126.293 0 0 0-14.223-56.889 64.569 64.569 0 0 0-23.324-37.546 77.084 77.084 0 0 0-42.382-14.222h-38.97a20.196 20.196 0 0 1-19.057-18.774v-9.102c0-9.387 4.836-23.609 4.836-32.996v-5.688a50.347 50.347 0 0 0-42.383-37.547h-4.55a135.68 135.68 0 0 1-42.383 4.551c-9.387 0-18.773-4.551-18.773-14.222v-40.96a56.889 56.889 0 0 0-32.996-56.89 190.009 190.009 0 0 0-70.542-13.937H457.956a4.551 4.551 0 0 0-4.836 4.551 49.209 49.209 0 0 0 32.996 28.445 301.227 301.227 0 0 0 65.99 0h51.485c4.836 0 4.836 0 4.836 4.835s0 9.387-4.836 9.387H504.89c-4.551 0-4.551 4.835-4.551 4.835a4.551 4.551 0 0 0 4.55 4.552c4.836 0 0 4.835 4.836 4.835h4.552a28.444 28.444 0 0 0 18.773 4.551h75.378a4.836 4.836 0 0 0 4.835 4.836h18.774a4.551 4.551 0 0 1 4.55 4.55h-70.542c-4.55 0-13.937-4.55-18.773 0v9.388a42.951 42.951 0 0 0 32.996 14.222h73.955a82.489 82.489 0 0 1 32.996-9.387c4.835 4.551 9.386 4.551 4.835 9.387H606.72c-4.836 0-4.836 0-4.836 4.55 4.836 9.388 14.223 19.059 23.61 19.059h85.333c4.55 0 9.386 4.55 4.55 9.386H650.81c-4.836 0-4.836 4.551 0 4.551 4.551 9.387 9.387 14.223 18.773 9.387h75.094a4.836 4.836 0 0 1 4.835 4.836c0 4.55-4.835 4.55-4.835 4.55h-62.01c-4.835 0 0 4.836 0 4.836 4.552 4.551 9.387 9.387 13.938 9.387 18.774 9.387 18.774 14.222 18.774 37.547v4.835a17.351 17.351 0 0 1-4.551 13.938l-85.334 85.333-7.68-9.955a331.662 331.662 0 0 1-32.995-56.89 24.747 24.747 0 0 1 9.386-32.71 4.836 4.836 0 0 0 4.836-4.836c4.551 0 9.387-4.55 14.222-4.55h9.387l23.324 9.386c9.387 4.55 14.223 0 14.223-9.387a72.249 72.249 0 0 0-32.996-56.889h-4.551a59.449 59.449 0 0 0-61.156 9.387 79.076 79.076 0 0 0-32.995 70.542v4.836a133.12 133.12 0 0 0 18.773 61.155 83.627 83.627 0 0 0-94.151 61.156l-98.702-98.702-65.707-69.974a10.24 10.24 0 0 0-9.387-9.67l-28.444-28.445-56.889-56.89-4.835-4.835-13.938-9.386a36.693 36.693 0 0 0-46.65-3.698 41.813 41.813 0 0 0-9.386 51.769c0 4.55 4.836 4.55 4.836 4.55L368.64 440.32h4.551l37.547 37.547c4.835 0 0 4.835 0 4.835a71.964 71.964 0 0 0-37.547 28.445 81.636 81.636 0 0 0-13.938 65.706s4.551 4.836 0 4.836h-14.222a77.938 77.938 0 0 0-70.542 42.382 104.676 104.676 0 0 0 9.955 98.418 6.542 6.542 0 0 1 0 9.387L124.018 891.733c-9.387 9.387-9.387 18.774 0 32.996h4.55c4.836 4.835 9.388 4.835 19.059 0L284.444 793.03l32.996-32.995c0-4.552 4.551-4.552 9.387 0a79.076 79.076 0 0 0 46.933 14.222h18.773a72.249 72.249 0 0 0 70.543-70.542v-14.223c0-4.55 0-9.386 4.835-4.55h4.551a87.324 87.324 0 0 0 75.378-23.61l9.387-9.386c0-4.836 4.835-9.387 4.835-14.223s4.551-4.55 4.551 0l47.218 47.218 9.387 4.551c4.55 4.836 9.386 4.836 9.386 9.387l37.547 37.831a42.667 42.667 0 0 1 4.551 46.933 90.453 90.453 0 0 0-9.386 32.996v46.933a99.84 99.84 0 0 0 4.835 37.547c4.551 9.387 4.551 19.058 14.222 28.444h4.551a142.222 142.222 0 0 0 107.52 51.485 125.724 125.724 0 0 0 127.147-75.093l9.387-14.223a35.556 35.556 0 0 0 9.386-18.773v-4.551A156.16 156.16 0 0 0 947.2 764.87a148.48 148.48 0 0 0-23.609-46.933 120.889 120.889 0 0 0-85.333-32.996h-13.37a129.991 129.991 0 0 0-61.155 13.938h-9.386a53.76 53.76 0 0 1-37.831-13.938l4.835-9.386-4.835-4.836-9.387-9.387-18.773-14.222-14.223-13.938-42.097-42.382a98.133 98.133 0 0 0 46.933-28.444 93.298 93.298 0 0 0 9.387-61.156c0-4.835 0-4.835 4.835-4.835l13.938 4.835a95.289 95.289 0 0 0 94.151-4.835 4.551 4.551 0 0 0 4.551-4.552l14.222-9.386 4.836-4.551 4.551-4.551a79.929 79.929 0 0 0 4.836-56.89c0-4.55-4.836-4.55-4.836-9.386a88.747 88.747 0 0 0-46.933-23.324H768s-4.551 0 0 4.55v4.836a16.782 16.782 0 0 0 4.836 13.938 36.693 36.693 0 0 1 4.55 23.609c0 23.609-18.773 37.547-37.546 28.444a269.084 269.084 0 0 1-61.156-37.546c-4.835-4.836 0-4.836 0-4.836 23.61-23.324 51.77-51.769 79.93-75.093a35.556 35.556 0 0 1 18.773-9.387c9.386 0 18.773-4.835 28.444 0a4.551 4.551 0 0 0 4.836 4.551c4.835 9.387 9.386 14.222 14.222 23.61 0 0 4.551 4.55 4.551 0v-61.156h4.836c4.55 0 4.55 4.55 4.55 9.386V384c0 4.551 4.836 13.938 9.387 13.938 4.836 4.835 9.387 4.835 9.387-4.551V332.23c0-4.835 4.836-4.835 9.387-4.835v94.15c0 4.552 4.835 9.387 4.835 13.938a4.836 4.836 0 0 1 4.836 4.836h5.12a9.102 9.102 0 0 0 9.386-9.387v-75.377A4.836 4.836 0 0 1 896 360.39v98.702a26.169 26.169 0 0 0 14.222 24.463h4.836V388.55c4.55 0 4.55 0 4.55 4.836V496.64a34.133 34.133 0 0 0 14.223 28.444c4.551 4.552 4.551 0 4.551-4.835v-4.551a591.076 591.076 0 0 0-5.404-89.031v-4.551c4.55 0 4.55 0 4.55 4.55V535.04a56.889 56.889 0 0 0 4.836 28.444 37.831 37.831 0 0 0 18.774 18.774c4.835 0 4.835 4.835 9.386 0s23.61 0 23.61-4.836zM575.43 125.156zM735.29 811.804A40.107 40.107 0 0 1 768 793.031c4.836 0 4.836 0 4.836-4.551a50.062 50.062 0 0 1 46.933-42.382 63.716 63.716 0 0 1 42.382 0h4.551a71.68 71.68 0 0 1 28.445 103.253 139.378 139.378 0 0 1-70.258 65.991 73.671 73.671 0 0 1-89.6-23.609 68.836 68.836 0 0 1-9.387-28.444v-14.222a91.022 91.022 0 0 1 9.387-37.547z m-409.031-122.31a85.333 85.333 0 0 1-9.387-32.712 26.169 26.169 0 0 1 28.445-23.609c9.386 0 18.773 4.551 28.444 4.551 4.836 0 4.836 4.836 0 4.836l-42.382 46.933c0 4.836-4.551 4.836-4.551 0z m94.15 32.995A26.169 26.169 0 0 1 396.8 736.71a90.453 90.453 0 0 1-32.996-9.387c-4.55 0-4.55-4.835 0-4.835l9.387-9.387 37.547-37.546a56.889 56.889 0 0 1 9.67 46.933z m28.445-150.471l-23.609 23.609s-4.55 4.55-4.55 0a49.778 49.778 0 0 1 0-51.77 47.218 47.218 0 0 1 42.097-9.386 9.956 9.956 0 0 1 9.387 9.387v4.55l-13.938 18.774c-4.836 0-4.836 4.836-9.387 4.836z m75.094 28.444v14.222a36.124 36.124 0 0 1-37.547 32.712c-9.387 0-14.222-4.552-18.773-4.552s-4.836-4.835 0-9.386l46.933-46.934h4.836a20.196 20.196 0 0 1 4.55 13.938z m14.222-122.31l-9.387 9.386 4.551 4.835v-4.835l4.836 4.835-4.836 4.551h-4.55a56.889 56.889 0 0 1-18.774-37.546 52.907 52.907 0 0 1 13.938-37.547 35.556 35.556 0 0 1 18.773-9.387 92.729 92.729 0 0 1 51.769 9.387l-4.551 4.551-4.836 4.836z m65.707 70.541h-13.938c-9.387 0-18.774-9.386-23.61-13.937a9.102 9.102 0 0 1 0-14.223l28.445-23.609 23.61-23.324v-4.836h4.835c0-4.55 4.55-4.55 9.386 0l4.552-4.55 4.835 4.55a66.276 66.276 0 0 1 9.387 51.77c-18.774 18.773-28.445 28.444-47.218 28.444z m235.235-174.08z m145.636 108.943z m0 0" p-id="3231"></path></svg>