<?xml version="1.0" standalone="no"?><!DOCTYPE svg PUBLIC "-//W3C//DTD SVG 1.1//EN" "http://www.w3.org/Graphics/SVG/1.1/DTD/svg11.dtd"><svg t="1656408377058" class="icon" viewBox="0 0 1025 1024" version="1.1" xmlns="http://www.w3.org/2000/svg" p-id="4227" xmlns:xlink="http://www.w3.org/1999/xlink" width="16.015625" height="16"><defs><style type="text/css">@font-face { font-family: feedback-iconfont; src: url("//at.alicdn.com/t/font_1031158_u69w8yhxdu.woff2?t=1630033759944") format("woff2"), url("//at.alicdn.com/t/font_1031158_u69w8yhxdu.woff?t=1630033759944") format("woff"), url("//at.alicdn.com/t/font_1031158_u69w8yhxdu.ttf?t=1630033759944") format("truetype"); }
</style></defs><path d="M227.15 569.82c3.98-9.52 1.94-19.99-5.32-27.34l-25.32-25.63c-4.78-4.85-11.18-7.51-18-7.51s-13.21 2.67-18 7.51l-25.32 25.63c-7.26 7.35-9.3 17.82-5.32 27.34 3.93 9.41 13.09 15.5 23.32 15.5h5.17c8.06 34.4 26.41 64.87 53.13 88.17 27.12 23.64 60.39 37.73 96.26 40.73l0.74 0.04a337.861 337.861 0 0 0 26.71-0.01l0.47-0.03c35.83-3.01 69.1-17.09 96.22-40.73 26.73-23.3 45.08-53.76 53.14-88.17h5.21c10.23 0 19.38-6.08 23.32-15.5 3.98-9.52 1.94-20-5.32-27.34l-25.32-25.63c-4.79-4.84-11.18-7.51-18-7.51s-13.21 2.67-18 7.51l-25.32 25.63c-7.26 7.35-9.3 17.82-5.32 27.34 3.17 7.59 9.94 13.18 17.92 14.92a118.316 118.316 0 0 1-87.96 78.37V506.5h66.58c6.56 0 12.73-2.56 17.36-7.2 4.64-4.64 7.19-10.81 7.18-17.37 0-6.56-2.56-12.72-7.2-17.36-4.64-4.63-10.8-7.18-17.36-7.18h-66.55l0.01-7.45c23.83-9.91 39.15-32.88 39.11-58.8-0.05-35.02-28.58-63.51-63.57-63.51h-0.17c-29.04 0-54.37 19.64-61.6 47.77-4.23 16.46-1.8 33.57 6.84 48.2 7.08 11.98 17.52 21.07 30.26 26.35v7.45h-66.58c-6.56 0-12.72 2.56-17.36 7.2-4.64 4.64-7.19 10.81-7.18 17.37 0 6.56 2.56 12.72 7.2 17.36 4.64 4.63 10.8 7.19 17.36 7.19h66.56V663.1a118.34 118.34 0 0 1-87.95-78.33c8.01-1.76 14.79-7.35 17.97-14.95z m94.55-193.08c7.99 0 14.5 6.5 14.5 14.5 0 7.99-6.5 14.5-14.5 14.5-7.99 0-14.5-6.5-14.5-14.5s6.5-14.5 14.5-14.5z" p-id="4228"></path><path d="M993.46 128.21H703.99V95.19c0-17.67-14.33-32-32-32H352.04c-17.67 0-32 14.33-32 32v33.02H32c-17.67 0-32 14.33-32 32v703.95c0 17.67 14.33 32 32 32h449.66c17.67 0 32-14.33 32-32s-14.33-32-32-32H64V192.21h256.04v32.3c0 17.67 14.33 32 32 32H672c17.67 0 32-14.33 32-32v-32.3h257.46v316.42c0 17.67 14.33 32 32 32s32-14.33 32-32V160.21c0-17.67-14.33-32-32-32z m-353.47 64.31H384.04v-65.33H640v65.33z" p-id="4229"></path><path d="M781.24 537.2c-64.98 0-126.08 25.31-172.03 71.26s-71.26 107.05-71.26 172.03 25.31 126.08 71.26 172.03 107.05 71.26 172.03 71.26 126.08-25.31 172.03-71.26 71.26-107.05 71.26-172.03c0-64.99-25.31-126.08-71.26-172.03S846.23 537.2 781.24 537.2z m0 422.58c-98.86 0-179.29-80.43-179.29-179.29S682.38 601.2 781.24 601.2s179.29 80.43 179.29 179.29-80.43 179.29-179.29 179.29z" p-id="4230"></path><path d="M852.56 704.91l-99.71 99.71-45.5-45.5c-12.5-12.5-32.76-12.5-45.25 0-12.5 12.5-12.5 32.76 0 45.25l66.98 66.98c2.8 2.8 5.98 4.96 9.39 6.51 4.62 2.41 9.7 3.62 14.79 3.62 8.19 0 16.38-3.12 22.63-9.37l121.94-121.94c12.5-12.5 12.5-32.76 0-45.25-12.51-12.51-32.77-12.51-45.27-0.01z m11.66-257.5c17.67 0 32-14.33 32-32s-14.33-32-32-32H672.86c-17.67 0-32 14.33-32 32s14.33 32 32 32h191.36z" p-id="4231"></path></svg>