<?xml version="1.0" standalone="no"?><!DOCTYPE svg PUBLIC "-//W3C//DTD SVG 1.1//EN" "http://www.w3.org/Graphics/SVG/1.1/DTD/svg11.dtd"><svg t="1656408582943" class="icon" viewBox="0 0 1024 1024" version="1.1" xmlns="http://www.w3.org/2000/svg" p-id="5078" xmlns:xlink="http://www.w3.org/1999/xlink" width="16" height="16"><defs><style type="text/css">@font-face { font-family: feedback-iconfont; src: url("//at.alicdn.com/t/font_1031158_u69w8yhxdu.woff2?t=1630033759944") format("woff2"), url("//at.alicdn.com/t/font_1031158_u69w8yhxdu.woff?t=1630033759944") format("woff"), url("//at.alicdn.com/t/font_1031158_u69w8yhxdu.ttf?t=1630033759944") format("truetype"); }
</style></defs><path d="M828.952381 682.666667a146.285714 146.285714 0 1 1 0 292.571428 146.285714 146.285714 0 0 1 0-292.571428z m-488.17981 169.520762L512 901.12l125.293714-35.791238c3.072 16.262095 8.167619 31.841524 14.994286 46.421333L512 951.832381l-170.105905-48.591238L199.021714 950.857143H48.761905a24.380952 24.380952 0 0 1-2.852572-48.591238L48.761905 902.095238h142.336l149.699047-49.907809zM877.714286 853.333333h-97.52381a24.380952 24.380952 0 0 0 0 48.761905h97.52381a24.380952 24.380952 0 0 0 0-48.761905zM512 463.238095l383.390476 112.761905a24.380952 24.380952 0 0 1 13.677714 36.473905l-19.699809 30.963809a195.047619 195.047619 0 0 0-255.122286 173.982476L512 852.358095l-171.227429-48.932571-105.081904 35.011047-123.684572-226.742857a24.380952 24.380952 0 0 1 14.506667-35.08419L512 463.238095z m365.714286 292.571429h-97.52381a24.380952 24.380952 0 0 0-2.852571 48.591238L780.190476 804.571429h97.52381a24.380952 24.380952 0 0 0 0-48.761905z m-240.64-170.593524l-2.29181 2.023619-127.829333 127.804952-68.973714-68.949333a24.380952 24.380952 0 0 0-36.498286 32.182857l2.023619 2.29181 86.211048 86.211047a24.380952 24.380952 0 0 0 32.182857 2.023619l2.291809-2.023619 145.066667-145.066666a24.380952 24.380952 0 0 0-32.182857-36.498286zM828.952381 268.190476v243.809524l-316.952381-97.52381-316.952381 97.52381V268.190476h633.904762z m-97.52381-195.047619v170.666667H292.571429V73.142857h438.857142z" p-id="5079"></path></svg>