<?xml version="1.0" standalone="no"?><!DOCTYPE svg PUBLIC "-//W3C//DTD SVG 1.1//EN" "http://www.w3.org/Graphics/SVG/1.1/DTD/svg11.dtd"><svg t="1656408369286" class="icon" viewBox="0 0 1024 1024" version="1.1" xmlns="http://www.w3.org/2000/svg" p-id="3939" xmlns:xlink="http://www.w3.org/1999/xlink" width="16" height="16"><defs><style type="text/css">@font-face { font-family: feedback-iconfont; src: url("//at.alicdn.com/t/font_1031158_u69w8yhxdu.woff2?t=1630033759944") format("woff2"), url("//at.alicdn.com/t/font_1031158_u69w8yhxdu.woff?t=1630033759944") format("woff"), url("//at.alicdn.com/t/font_1031158_u69w8yhxdu.ttf?t=1630033759944") format("truetype"); }
</style></defs><path d="M486.9 958.1c15.5-90.7 141.4-90.7 157 0H720c35.1 0 35.7-8.5 35.7-42V686.4c0-94 10.1-86.5-68.6-86.5H456.3c-34.3 0-36.4 6.7-36.4 39.9v230.8c0 14.4-2.1 65.7 2.4 74.8 4.5 9.1 12.8 12.7 26 12.7h38.6z m313.3-0.3c17.8-83.6 114.1-87.1 147.7-27.4 5.9 10.4 5.4 17.3 9.6 27.4 50.9 5.9 44.4-17 44.4-58.6 0-25.6 3.4-77.7-5.3-98.2-9-21.6-37.2-55.7-52.4-76.1-3.8-5-7.7-10.7-11.2-14.9-8.2-9.3-13.8-19.5-32.4-20.3l-103.4 0.3c-16.2 2.2-19.4 14.7-19.2 31.9v207c0 16.2 5.4 28.7 22.2 28.9z m45.1-134.1v-89.2c14.6-0.8 37.6-1 52.2-0.2 10.9 0.6 18.1 14.9 26.1 26.1 9.4 13.1 40 51.4 40.5 63.4-32.7 0.2-87.6 0.9-118.8-0.1z m0 0" p-id="3940"></path><path d="M553.9 919c-24.5 6.2-46.5 30.1-38.6 62.2 5.9 24.2 30.3 45.5 61.7 38.4 24.2-5.4 46.1-30.8 38.9-61.8-5.8-24-30.8-46.8-62-38.8z m321-0.9c-27.4 2.7-50.1 24.8-47.4 55.6 2.4 27.4 26.1 49.8 56.2 47.1 26.9-2.6 49.2-26.3 46.3-56.5-2.4-26.4-26.1-49.1-55.1-46.2z m-854-675.7v778.1h177.7v-636h624.1v126.9h177.7V244.6c0-9.6-18.6-14.6-26-18.1l-46.1-21.9c-6.4-2.9-9.6-5.1-16-8-12-5.3-19.5-9.1-31.6-14.4C824.1 157 752 119 695.8 94.8L524.4 13.9C494-0.8 500.8-1 477.6 9.5L324.3 86.8c-10.3 5.3-20.2 9.3-31.1 15.1L49.1 224.4c-6.6 3.4-28.2 9.3-28.2 18z m0 0" p-id="3941"></path><path d="M251.1 742h109.2v94.5H251.1V742z m0-126.2h109.2v92.6H251.1v-92.6z m0 0" p-id="3942"></path></svg>