<?xml version="1.0" standalone="no"?><!DOCTYPE svg PUBLIC "-//W3C//DTD SVG 1.1//EN" "http://www.w3.org/Graphics/SVG/1.1/DTD/svg11.dtd"><svg t="1656408373119" class="icon" viewBox="0 0 1024 1024" version="1.1" xmlns="http://www.w3.org/2000/svg" p-id="4082" xmlns:xlink="http://www.w3.org/1999/xlink" width="16" height="16"><defs><style type="text/css">@font-face { font-family: feedback-iconfont; src: url("//at.alicdn.com/t/font_1031158_u69w8yhxdu.woff2?t=1630033759944") format("woff2"), url("//at.alicdn.com/t/font_1031158_u69w8yhxdu.woff?t=1630033759944") format("woff"), url("//at.alicdn.com/t/font_1031158_u69w8yhxdu.ttf?t=1630033759944") format("truetype"); }
</style></defs><path d="M457.921 975.752c-12.569 0-20.11-10.055-20.11-22.623 0-7.542 5.028-15.083 10.055-17.597l145.797-90.494c5.028-2.514 7.541-5.028 12.569-5.028 7.541 0 12.569 2.514 17.596 7.541 7.541 10.055 5.028 22.624-5.027 30.165l-2.514 2.514-148.311 90.495c-2.514 5.027-5.027 5.027-10.055 5.027z m0-482.639c-2.514 0-7.541 0-10.055-2.513L55.722 279.445c-10.055-5.027-15.082-17.596-7.541-30.165 2.513-5.027 5.027-7.541 10.055-10.055L450.38 35.612c2.514-2.514 7.541-2.514 10.055-2.514 2.514 0 7.541 0 10.055 2.514L860.12 249.28c10.055 5.028 15.083 17.596 7.541 27.651-2.513 5.028-5.027 7.542-7.54 10.055L467.975 490.6c-2.514 0-7.541 2.513-10.055 2.513zM111.024 261.85l344.383 183.503 351.924-178.476L457.921 80.86 111.024 261.85z" p-id="4083"></path><path d="M457.921 975.752c-5.027 0-7.541 0-10.055-2.513L53.208 729.405c-7.541-5.027-10.055-10.055-10.055-17.596V261.85c0-5.028 2.514-10.055 5.028-15.082 5.027-5.028 10.055-7.542 15.082-7.542 2.514 0 7.541 0 10.055 2.514l392.144 211.155c7.541 2.513 12.569 10.055 12.569 17.596v485.152c0 10.055-7.541 20.11-20.11 20.11zM85.887 694.212l351.924 221.21V483.058L85.887 294.528v399.685z" p-id="4084"></path><path d="M236.712 505.682l2.513-153.338 382.09-211.155 42.733 25.138-382.09 211.154v155.852z m565.592 135.742c-2.514 0-5.028 0-7.541-2.513l-173.449-90.495c-5.027-2.514-7.54-5.028-10.055-10.055-2.513-5.028 0-10.055 0-15.083l7.542-7.54 173.448-87.982c2.514-2.514 5.027-2.514 7.541-2.514 2.514 0 5.028 0 7.541 2.514l173.449 90.495c5.027 2.514 7.541 5.027 10.055 10.055s0 10.055 0 15.082l-7.541 7.542-173.449 85.467c-2.514 2.514-5.027 2.514-7.541 5.027zM671.589 530.82l133.229 70.384 130.714-67.87-133.228-70.385-130.715 67.87z" p-id="4085"></path><path d="M802.304 850.065c-2.514 0-5.028 0-7.541-2.514L621.314 741.974c-5.027-2.514-7.54-10.055-7.54-15.082V530.82c0-5.028 2.513-10.055 5.027-12.57 2.513-2.513 7.54-5.027 12.568-5.027 2.514 0 5.028 0 10.055 2.514l170.935 93.009c5.027 2.513 10.055 10.055 10.055 17.596v211.154c0 7.542-5.028 15.083-15.083 17.597l-5.027-5.028zM648.966 716.837l135.742 82.953V633.883l-135.742-72.898v155.852z" p-id="4086"></path><path d="M802.304 852.579c-10.055 0-17.596-7.541-17.596-17.596V623.828c0-7.541 5.027-12.569 10.055-17.596l173.448-90.495c2.514-2.514 5.028-2.514 5.028-2.514 7.54 0 15.082 7.542 20.11 12.57 2.513 2.513 2.513 2.513 2.513 5.027v196.072c0 7.54-2.514 12.568-7.541 15.082L814.873 847.551c-5.028 5.028-7.542 5.028-12.57 5.028z m20.11-216.182v165.907l135.742-82.954V563.498l-135.742 72.899z" p-id="4087"></path></svg>