<?xml version="1.0" standalone="no"?><!DOCTYPE svg PUBLIC "-//W3C//DTD SVG 1.1//EN" "http://www.w3.org/Graphics/SVG/1.1/DTD/svg11.dtd"><svg t="1656408144230" class="icon" viewBox="0 0 1534 1024" version="1.1" xmlns="http://www.w3.org/2000/svg" p-id="1746" width="23.96875" height="16" xmlns:xlink="http://www.w3.org/1999/xlink"><defs><style type="text/css">@font-face { font-family: feedback-iconfont; src: url("//at.alicdn.com/t/font_1031158_u69w8yhxdu.woff2?t=1630033759944") format("woff2"), url("//at.alicdn.com/t/font_1031158_u69w8yhxdu.woff?t=1630033759944") format("woff"), url("//at.alicdn.com/t/font_1031158_u69w8yhxdu.ttf?t=1630033759944") format("truetype"); }
</style></defs><path d="M268.943 799.147h-74.918c-37.27 0-37.458 1.103-37.458 39.307v39.326c0 17.654 0.018 19.663 37.458 19.663h18.73s-7.55-74.595 56.188-98.298z m74.917 1.774c-51.748 0-93.647 44.113-93.647 98.531 0 54.38 41.9 98.494 93.648 98.494 51.73 0 93.647-44.115 93.647-98.494 0-54.418-41.936-98.531-93.648-98.531z m580.614 0V643.319L812.097 466.015H699.72c-29.966 0-37.46 10.62-37.46 39.405v295.5H418.78c62.913 18.087 56.189 98.515 56.189 98.515s168.563 0.097 168.563 0c0-36.216 13.73-76.567 37.46-98.514 19.665-18.166 43.172-39.406 93.648-39.406 38.825 0 73.98 21.239 93.645 39.406 23.73 21.947 37.46 62.298 37.46 98.514 0 21.53 37.459 20.33 37.459 0v-59.111c0-13.397-6.2-39.403-18.73-39.403z m-149.854 0c-51.73 0-93.628 44.113-93.628 98.531 0 54.38 41.897 98.494 93.629 98.494 51.749 0 93.664-44.115 93.664-98.494 0-54.418-41.915-98.531-93.665-98.531zM172.377 0.006l1257.736 244.479L1408.243 357 150.504 112.52z" p-id="1747"></path><path d="M988.32 214.388h70.811v791.545h-70.812zM161.666 469.435h477.088V779.09H161.667V469.435z m939.095 197.754l30.346-28.213 83.23 77.332 138.738-128.944 30.338 28.214-169.074 157.22" p-id="1748"></path></svg>