<?xml version="1.0" standalone="no"?><!DOCTYPE svg PUBLIC "-//W3C//DTD SVG 1.1//EN" "http://www.w3.org/Graphics/SVG/1.1/DTD/svg11.dtd"><svg t="1656408182436" class="icon" viewBox="0 0 1024 1024" version="1.1" xmlns="http://www.w3.org/2000/svg" p-id="2801" xmlns:xlink="http://www.w3.org/1999/xlink" width="16" height="16"><defs><style type="text/css">@font-face { font-family: feedback-iconfont; src: url("//at.alicdn.com/t/font_1031158_u69w8yhxdu.woff2?t=1630033759944") format("woff2"), url("//at.alicdn.com/t/font_1031158_u69w8yhxdu.woff?t=1630033759944") format("woff"), url("//at.alicdn.com/t/font_1031158_u69w8yhxdu.ttf?t=1630033759944") format("truetype"); }
</style></defs><path d="M548.1 624.7H423.7c-22.6 0-28.3 11.3-42.4 22.6-5.7 2.8-8.5 11.3-14.1 17-19.8 22.6-53.7 65-65 90.5-8.5 25.4-5.7 87.7-5.7 118.8 0 50.9-8.5 79.2 53.7 70.7 5.7-14.1 2.8-22.6 11.3-33.9 42.4-70.7 158.3-65 181 33.9 22.6 0 28.3-14.1 28.3-33.9V658.6c-0.1-16.9-2.9-31.1-22.7-33.9zM497.2 783H347.4c0-17 39.6-62.2 50.9-79.2 11.3-11.3 19.8-31.1 33.9-31.1h65V783z m0 0" p-id="2802"></path><path d="M454.8 896.1h-5.7c-33.9 0-59.4 25.4-62.2 56.5-2.8 36.8 25.4 65 56.5 67.9 36.8 2.8 65-22.6 67.9-56.5 2.9-36.8-22.6-65-56.5-67.9zM992 226l-45.2-19.8-5.7-2.8c-5.7-2.8-8.5-2.8-11.3-5.7-14.1-5.7-22.6-8.5-33.9-14.1C836.5 158.2 763 121.4 703.6 96L525.5 14l-5.7-2.8C494.4-0.1 500-0.1 474.6 11.2L316.3 87.5l-5.7 5.7c-8.5 5.7-14.1 8.5-22.6 11.3L33.5 226h-2.8c-8.5 2.8-28.3 8.5-28.3 17v777.6h183.8V384.4h670.1V455h164V243c-2.8-8.5-19.8-14.2-28.3-17zM859.1 899c-36.8-11.3-65 17-76.3 45.2-8.5 36.8 19.8 67.9 48.1 73.5 36.8 8.5 67.9-17 73.5-45.2 11.3-36.8-17-65.1-45.3-73.5z m0 0" p-id="2803"></path><path d="M1017.5 556.8c0-36.8-2.8-45.2-45.2-45.2H678.2c-90.5 0-79.2-5.7-82 104.6v285.6c0 33.9 5.7 42.4 45.2 42.4h96.1v-5.7c22.6-104.6 175.3-101.8 195.1 5.7h53.7c14.1 0 22.6-2.8 28.3-14.1 5.7-11.3 2.8-73.5 2.8-90.5V556.8z m-93.3 101.8v39.6c0 8.5-2.8 17-5.7 25.4-5.7 8.5-11.3 17-17 22.6-8.5 8.5-17 14.1-25.4 17-8.5 2.8-17 5.7-28.3 5.7h-56.5c-2.8 0-2.8 2.8-2.8 5.7v17c0 5.7 0 8.5-2.8 8.5s-5.7 0-8.5-2.8c-5.7-2.8-8.5-5.7-14.1-8.5-5.7-2.8-11.3-8.5-17-11.3-5.7-2.8-11.3-8.5-17-11.3-5.7-5.7-11.3-8.5-14.1-11.3-2.8-2.8-5.7-5.7-5.7-8.5s0-5.7 5.7-11.3c2.8-2.8 5.7-5.7 11.3-8.5 2.8-2.8 8.5-8.5 14.1-11.3 2.8-2.8 8.5-8.5 14.1-11.3 5.7-5.7 11.3-8.5 14.1-11.3 5.7-2.8 8.5-2.8 11.3-2.8 2.8 2.8 5.7 5.7 5.7 8.5V721c0 2.8 0 5.7 2.8 5.7H845c2.8 0 8.5 0 11.3-2.8 5.7 0 8.5-2.8 11.3-5.7l8.5-8.5c2.8-2.8 2.8-8.5 2.8-11.3v-56.5c0-2.8 0-5.7 2.8-8.5s5.7-5.7 8.5-5.7c2.8-2.8 8.5-2.8 11.3-2.8 2.8 0 5.7 2.8 11.3 2.8 2.8 2.8 5.7 2.8 8.5 5.7 2.8 2.8 2.8 5.7 2.8 8.5v16.7z m0 0" p-id="2804"></path></svg>