<?xml version="1.0" standalone="no"?><!DOCTYPE svg PUBLIC "-//W3C//DTD SVG 1.1//EN" "http://www.w3.org/Graphics/SVG/1.1/DTD/svg11.dtd"><svg t="1656408204242" class="icon" viewBox="0 0 1024 1024" version="1.1" xmlns="http://www.w3.org/2000/svg" p-id="3371" xmlns:xlink="http://www.w3.org/1999/xlink" width="16" height="16"><defs><style type="text/css">@font-face { font-family: feedback-iconfont; src: url("//at.alicdn.com/t/font_1031158_u69w8yhxdu.woff2?t=1630033759944") format("woff2"), url("//at.alicdn.com/t/font_1031158_u69w8yhxdu.woff?t=1630033759944") format("woff"), url("//at.alicdn.com/t/font_1031158_u69w8yhxdu.ttf?t=1630033759944") format("truetype"); }
</style></defs><path d="M513.728 41.216c95.872 0 169.472 73.6 169.472 169.472 0 75.776-50.368 140.608-121.664 164.096l-10.752 3.072v33.984l148.288 0.064c17.92 0 31.552 10.432 35.712 26.304l1.088 5.504 0.256 5.248a35.328 35.328 0 0 1-31.744 36.8l-5.312 0.32-148.288-0.064V828.16l1.984-0.256c110.72-12.928 205.44-80 257.152-177.472l6.272-12.288 1.984-4.48-15.104 4.352c-17.472 5.824-31.744-1.6-40.448-17.024l-2.688-5.44-2.048-5.44c-6.464-19.392 3.392-34.816 22.976-43.2l5.568-2.112 99.968-26.304c19.392-6.464 34.816 3.392 43.2 22.976l2.112 5.568 26.304 99.968c7.04 21.12-5.312 37.632-27.904 45.12-19.392 6.464-34.816-3.328-43.264-23.04l-2.112-5.568-2.88-11.392-5.12 10.56c-61.056 121.856-180.8 204.992-320.704 219.328l-5.248 0.384v43.264c0 17.92-10.368 31.552-26.24 35.712l-5.504 1.088-5.312 0.32a35.328 35.328 0 0 1-36.736-31.808l-0.32-5.312V902.4l-5.12-0.384C331.584 887.68 211.776 804.544 150.72 682.688l-6.784-14.208-6.144 17.728c0 18.048-12.672 28.096-32.768 30.592l-6.272 0.576-6.656 0.064c-17.728-5.888-26.56-17.856-27.904-37.632L64 672.96l26.688-101.312c5.888-17.664 17.792-26.56 37.632-27.904l6.848-0.128L236.48 570.24c19.648 6.592 28.416 20.608 27.84 45.184-5.888 17.728-17.856 26.56-38.08 27.776l-7.04 0.128-9.408-3.2 1.344 2.88c47.552 98.24 139.008 165.888 249.472 183.04l16.064 2.112V486.016H328.448c-17.92 0-31.552-10.432-35.712-26.24l-1.088-5.504-0.32-5.312c0-19.84 12.928-34.432 31.808-36.736l5.312-0.32h148.224v-34.048l-1.28-0.256c-69.76-18.88-121.6-76.736-129.92-146.944l-0.896-10.176-0.256-9.792c0-95.872 73.6-169.472 169.408-169.472z m0 74.176c-52.352 0-95.296 42.88-95.296 95.36 0 52.352 42.88 95.232 95.36 95.232 52.352 0 95.296-42.88 95.296-95.296 0-52.416-42.88-95.36-95.36-95.36z" p-id="3372"></path></svg>